<?xml version="1.0" encoding="utf-8"?>
<!-- Generator: Adobe Illustrator 27.5.0, SVG Export Plug-In . SVG Version: 6.00 Build 0)  -->
<svg version="1.1" id="Layer_1" xmlns="http://www.w3.org/2000/svg" xmlns:xlink="http://www.w3.org/1999/xlink" x="0px" y="0px"
	 viewBox="0 0 300 300" style="enable-background:new 0 0 300 300;" xml:space="preserve">
<style type="text/css">
	.st0{fill:none;stroke:#000000;stroke-width:8;stroke-miterlimit:10;}
</style>
<path class="st0" d="M228.7,63.3"/>
<path class="st0" d="M40.4,110.6c68.4,0.7,137.8-0.6,206.2,0c12.6,0,21.5,0.3,21.5-10.7c0-12.8-12.6-12.6-20.3-12.6
	c-69.1,0-138.2,0-207.3,0"/>
<path class="st0" d="M268,131c-68.4-0.7-137.8,0.6-206.2,0c-12.6,0-21.5-0.3-21.5,10.7c0,12.8,12.6,12.6,20.3,12.6
	c69.1,0,138.2,0,207.3,0"/>
<path class="st0" d="M40.4,197.5c68.4,0.7,137.8-0.6,206.2,0c12.6,0,21.5,0.3,21.5-10.7c0-12.8-12.6-12.6-20.3-12.6
	c-69.1,0-138.2,0-207.3,0"/>
</svg>
