<?xml version="1.0" encoding="UTF-8" standalone="no"?>
<!-- Created with Inkscape (http://www.inkscape.org/) -->

<svg
   version="1.1"
   id="svg1671"
   xml:space="preserve"
   width="682.66669"
   height="682.66669"
   viewBox="0 0 682.66669 682.66669"
   xmlns="http://www.w3.org/2000/svg"
   xmlns:svg="http://www.w3.org/2000/svg"><defs
     id="defs1675"><clipPath
       clipPathUnits="userSpaceOnUse"
       id="clipPath1689"><path
         d="M 0,512 H 512 V 0 H 0 Z"
         id="path1687" /></clipPath></defs><g
     id="g1677"
     transform="matrix(1.3333333,0,0,-1.3333333,0,682.66667)"><g
       id="g1679"
       transform="translate(446.4229,145.8696)"><path
         d="M 0,0 27.404,141.858"
         style="fill:none;stroke:black;stroke-width:22;stroke-linecap:round;stroke-linejoin:round;stroke-miterlimit:10;stroke-dasharray:none;stroke-opacity:1"
         id="path1681" /></g><g
       id="g1683"><g
         id="g1685"
         clip-path="url(#clipPath1689)"><g
           id="g1691"
           transform="translate(38.5596,287.728)"><path
             d="m 0,0 36.522,-189.055 c 3.195,-16.537 17.67,-28.484 34.513,-28.484 h 293.197 c 16.843,0 31.319,11.947 34.514,28.484 l 2.407,12.463"
             style="fill:none;stroke:black;stroke-width:22;stroke-linecap:round;stroke-linejoin:round;stroke-miterlimit:10;stroke-dasharray:none;stroke-opacity:1"
             id="path1693" /></g><g
           id="g1695"
           transform="translate(332.0283,334.4888)"><path
             d="M 0,0 H -152.057"
             style="fill:none;stroke:black;stroke-width:22;stroke-linecap:round;stroke-linejoin:round;stroke-miterlimit:10;stroke-dasharray:none;stroke-opacity:1"
             id="path1697" /></g><g
           id="g1699"
           transform="translate(41.6807,334.4888)"><path
             d="m 0,0 h -20.216 c -7.713,0 -13.965,-6.252 -13.965,-13.965 v -18.831 c 0,-7.712 6.252,-13.965 13.965,-13.965 h 469.07 c 7.713,0 13.965,6.253 13.965,13.965 v 18.831 C 462.819,-6.252 456.567,0 448.854,0 H 344.776"
             style="fill:none;stroke:black;stroke-width:22;stroke-linecap:round;stroke-linejoin:round;stroke-miterlimit:10;stroke-dasharray:none;stroke-opacity:1"
             id="path1701" /></g><g
           id="g1703"
           transform="translate(125.543,334.4888)"><path
             d="M 0,0 H -48.654"
             style="fill:none;stroke:black;stroke-width:22;stroke-linecap:round;stroke-linejoin:round;stroke-miterlimit:10;stroke-dasharray:none;stroke-opacity:1"
             id="path1705" /></g><g
           id="g1707"
           transform="translate(112.6895,321.0127)"><path
             d="m 0,0 109.4,114.697 c 7.507,7.87 19.972,8.165 27.842,0.658 7.87,-7.506 8.165,-19.971 0.658,-27.841 L 28.5,-27.184 c -7.507,-7.87 -19.972,-8.164 -27.842,-0.658 v 10e-4 C -7.212,-20.335 -7.506,-7.87 0,0 Z"
             style="fill:none;stroke:black;stroke-width:22;stroke-linecap:round;stroke-linejoin:round;stroke-miterlimit:10;stroke-dasharray:none;stroke-opacity:1"
             id="path1709" /></g><g
           id="g1711"
           transform="translate(262.0684,436.3682)"><path
             d="m 0,0 v 0 c 7.87,7.506 20.335,7.212 27.842,-0.658 l 109.4,-114.697 c 7.506,-7.87 7.212,-20.335 -0.658,-27.842 v 0 c -7.87,-7.507 -20.335,-7.212 -27.842,0.658 L -0.658,-27.842 C -8.165,-19.972 -7.87,-7.507 0,0 Z"
             style="fill:none;stroke:black;stroke-width:22;stroke-linecap:round;stroke-linejoin:round;stroke-miterlimit:10;stroke-dasharray:none;stroke-opacity:1"
             id="path1713" /></g><g
           id="g1715"
           transform="translate(171.249,115.7432)"><path
             d="m 0,0 c -7.149,0 -13.483,5.126 -14.766,12.411 l -15.77,89.569 c -1.438,8.166 4.015,15.951 12.182,17.388 8.158,1.436 15.95,-4.016 17.386,-12.181 l 15.77,-89.57 C 16.239,9.452 10.786,1.667 2.621,0.229 1.741,0.075 0.864,0 0,0 Z"
             style="fill:none;stroke:black;stroke-width:22;stroke-linecap:round;stroke-linejoin:round;stroke-miterlimit:10;stroke-dasharray:none;stroke-opacity:1"
             id="path1717" /></g><g
           id="g1719"
           transform="translate(256,115.7456)"><path
             d="m 0,0 c -8.291,0 -15.012,6.721 -15.012,15.012 v 89.569 c 0,8.291 6.721,15.012 15.012,15.012 8.291,0 15.012,-6.721 15.012,-15.012 V 15.012 C 15.012,6.721 8.291,0 0,0 Z"
             style="fill:none;stroke:black;stroke-width:22;stroke-linecap:round;stroke-linejoin:round;stroke-miterlimit:10;stroke-dasharray:none;stroke-opacity:1"
             id="path1721" /></g><g
           id="g1723"
           transform="translate(340.751,115.7432)"><path
             d="m 0,0 c -0.864,0 -1.74,0.075 -2.621,0.229 -8.165,1.438 -13.618,9.223 -12.181,17.388 l 15.77,89.57 c 1.436,8.165 9.22,13.617 17.386,12.181 8.167,-1.437 13.62,-9.222 12.182,-17.388 L 14.766,12.411 C 13.483,5.126 7.148,0 0,0 Z"
             style="fill:none;stroke:black;stroke-width:22;stroke-linecap:round;stroke-linejoin:round;stroke-miterlimit:10;stroke-dasharray:none;stroke-opacity:1"
             id="path1725" /></g></g></g></g></svg>
